HIERARCHY
ROOT Hips
{
  OFFSET 0 0 0
  CHANNELS 6 Xposition Yposition Zposition Zrotation Yrotation Xrotation
  JOINT LeftThigh
  {
    OFFSET 8.409438 0 -5.917753
    CHANNELS 3 Zrotation Yrotation Xrotation
    JOINT LeftLeg
    {
      OFFSET 0 0 -42.358652
      CHANNELS 3 Zrotation Yrotation Xrotation
      JOINT LeftFoot
      {
        OFFSET 0 0 -39.357303
        CHANNELS 3 Zrotation Yrotation Xrotation
      }
    }
  }
  JOINT RightThigh
  {
    OFFSET -8.409438 0 -5.917753
    CHANNELS 3 Zrotation Yrotation Xrotation
    JOINT RightLeg
    {
      OFFSET 0 0 -42.358652
      CHANNELS 3 Zrotation Yrotation Xrotation
      JOINT RightFoot
      {
        OFFSET 0 0 -39.357303
        CHANNELS 3 Zrotation Yrotation Xrotation
      }
    }
  }
  JOINT SpineLow
  {
    OFFSET 0 0 4.719101
    CHANNELS 3 Zrotation Yrotation Xrotation
    JOINT SpineMid
    {
      OFFSET 0 0 12.899191
      CHANNELS 3 Zrotation Yrotation Xrotation
      JOINT Chest
      {
        OFFSET 0 0 12.899191
        CHANNELS 3 Zrotation Yrotation Xrotation
        JOINT LeftShoulder
        {
          OFFSET 7.550562 1.41573 9.438202
          CHANNELS 3 Zrotation Yrotation Xrotation
          JOINT LeftArm
          {
            OFFSET 9.155056 0 4.247191
            CHANNELS 3 Zrotation Yrotation Xrotation
            JOINT LeftForearm
            {
              OFFSET 0 0 25.771955
              CHANNELS 3 Zrotation Yrotation Xrotation
              JOINT LeftHand
              {
                OFFSET 0 0 25.197169
                CHANNELS 3 Zrotation Yrotation Xrotation
              }
            }
          }
        }
        JOINT RightShoulder
        {
          OFFSET -7.550562 1.41573 9.438202
          CHANNELS 3 Zrotation Yrotation Xrotation
          JOINT RightArm
          {
            OFFSET -9.155056 0 4.247191
            CHANNELS 3 Zrotation Yrotation Xrotation
            JOINT RightForearm
            {
              OFFSET 0 0 -25.771955
              CHANNELS 3 Zrotation Yrotation Xrotation
              JOINT RightHand
              {
                OFFSET 0 0 -25.197169
                CHANNELS 3 Zrotation Yrotation Xrotation
              }
            }
          }
        }
        JOINT Neck
        {
          OFFSET 0 0 15.101124
          CHANNELS 3 Zrotation Yrotation Xrotation
          JOINT Head
          {
            OFFSET 0 0 11.325843
            CHANNELS 3 Zrotation Yrotation Xrotation
            End Site
            {
              OFFSET 0 0 14.157303
            }
          }
        }
      }
    }
  }
}
MOTION
Frames: 7
Frame Time: 0.0
0.0  93.25843  0.0  -4.421399  -5.156167  -88.050503  13.469957  -13.857591  -3.982897  -5.525386  0.072241  13.518973  2.45198  0.387204  -0.030654  -7.180388  0.158497  -8.165921  -13.802016  9.476406  8.475337  1.985121  1.563498  0.44394  6.738194  -1.472918  0.231349  18.425277  -4.05435  0.218419  18.425277  -4.05435  0.218419  -3.982917  23.691951  4.649507  -171.983657  18.570546  -171.459421  -17.413938  37.449923  103.874511  47.847299  -5.068272  2.426414  0.043048  -12.331408  27.085655  51.758975  62.47142  17.614289  22.247086  11.893857  -11.819004  44.045521  -27.958926  18.808335  -22.231787  5.872509  11.781694  -16.779988  3.983815  9.057102  
0.0  93.25843  0.0  -4.601434  -6.171804  -87.913911  14.039222  -14.208757  -4.423781  -5.65264  0.499312  14.176192  2.729892  0.439862  0.004484  -6.877092  0.156203  -7.988175  -14.110714  8.834868  8.208368  2.080798  1.521563  0.335184  6.785675  -1.378817  0.233625  18.553356  -3.800033  0.247993  18.553357  -3.800033  0.247993  -4.150857  23.486735  4.064791  -172.554136  18.573039  -171.696042  -18.032237  35.400378  104.193239  45.506869  -6.328222  1.452059  -0.576786  -11.062566  25.556719  56.441538  61.020278  19.569892  15.284986  11.13739  -16.401365  42.763189  -25.025445  25.508459  -21.833939  4.86037  11.948452  -16.468192  3.224624  9.143884  
0.0  93.25843  0.0  -4.723975  -7.164047  -88.045843  15.096017  -14.514007  -4.724825  -5.930511  0.826374  14.779212  2.883326  0.513472  0.146434  -6.222115  0.339589  -7.385518  -14.785586  8.297168  7.75152  2.193579  1.397645  0.282805  6.626157  -1.315738  0.280691  18.11333  -3.641982  0.402118  18.11333  -3.641982  0.402118  -4.440997  24.161402  4.09271  -172.208824  18.456093  -171.636693  -18.735832  32.975514  104.849459  43.126548  -7.459153  0.126003  -0.786871  -10.025403  25.439556  65.435463  60.608256  24.636539  7.717847  10.14019  -21.103666  44.511627  -24.096922  31.495954  -20.852424  4.133607  11.855423  -15.719774  2.700461  9.041506  
0.0  93.25843  0.0  -4.721094  -7.989658  -88.405767  16.455624  -14.784349  -4.673399  -6.232962  1.047862  15.21523  2.734933  0.553927  0.202132  -5.519028  0.544495  -6.603651  -15.444295  7.958968  7.194167  2.255177  1.308527  0.244759  6.240099  -1.338816  0.297818  17.05643  -3.708056  0.464157  17.056429  -3.708056  0.464157  -4.303949  25.386096  5.248439  -170.892226  18.407589  -171.274749  -19.108508  32.48454  104.885506  42.220309  -8.712254  -1.099139  -0.335844  -9.526761  25.80057  76.73903  59.809704  32.162565  3.23383  10.78068  -23.375775  45.546679  -24.085779  33.01334  -19.14804  4.165142  11.760855  -14.441249  2.759691  8.957916  
0.0  93.25843  0.0  -4.620367  -8.578547  -88.717065  17.767319  -14.59333  -4.316241  -6.655494  0.845603  15.272051  2.432595  0.574338  0.205089  -4.965248  0.71652  -6.075984  -15.853493  7.781178  6.859401  2.320674  1.262253  0.248473  5.815498  -1.424242  0.246522  15.898648  -3.926234  0.328304  15.898649  -3.926234  0.328304  -3.500947  26.345465  6.561529  -170.328196  18.154331  -171.665243  -20.19474  33.395301  103.282272  41.741539  -9.245144  -1.48152  -0.049483  -9.458158  26.188056  88.948587  57.962391  41.238603  0.054115  11.642588  -23.750601  44.901128  -24.384931  32.549786  -17.331579  4.836744  11.904467  -13.091178  3.294586  9.069148  
0.0  93.25843  0.0  -4.290527  -9.098876  -88.966536  18.86039  -14.342513  -3.819282  -7.08928  0.769569  15.153482  2.192329  0.581511  0.218627  -4.519721  1.068578  -5.76094  -16.030407  7.718569  6.780346  2.383631  1.207851  0.267807  5.388529  -1.469013  0.192724  14.734102  -4.035312  0.197507  14.7341  -4.035312  0.197507  -2.450505  26.836646  7.592685  -170.558999  17.715532  -172.363853  -21.770015  35.101056  100.734189  41.371105  -9.422258  -3.569406  0.466618  -9.619737  26.73274  91.735193  57.753403  41.92896  0.541102  12.798735  -22.769987  43.996246  -23.792005  31.990041  -15.602022  5.628904  12.203684  -11.81031  3.915119  9.296656  
0.0  93.25843  0.0  -4.433446  -9.670086  -89.022827  19.400179  -14.520935  -3.515619  -7.439175  0.756587  14.940996  2.291852  0.594008  0.345172  -4.390094  0.911109  -5.665623  -16.065412  7.770516  6.838306  2.715225  1.134399  0.353338  5.160941  -1.486657  0.066248  14.119224  -4.056465  -0.136593  14.119225  -4.056464  -0.136593  -2.475592  26.77542  8.528623  -171.343044  17.245725  -173.03978  -24.081873  36.851415  98.582483  37.414873  -9.064585  -3.456781  0.117408  -10.18913  27.242648  85.278697  59.004771  34.968358  3.592491  13.365174  -21.895621  44.203818  -21.973596  32.09604  -14.550298  6.038514  12.863822  -11.03584  4.227849  9.789686  
